<svg id="Group_82" data-name="Group 82" xmlns="http://www.w3.org/2000/svg" xmlns:xlink="http://www.w3.org/1999/xlink" width="38.699" height="38.698" viewBox="0 0 38.699 38.698">
  <defs>
    <clipPath id="clip-path">
      <rect id="Rectangle_195" data-name="Rectangle 195" width="38.699" height="38.698" fill="none"/>
    </clipPath>
  </defs>
  <g id="Group_80" data-name="Group 80" clip-path="url(#clip-path)">
    <path id="Path_53" data-name="Path 53" d="M18.213,38.7c-.734-.1-1.472-.172-2.2-.3a19,19,0,0,1-11.17-6.271A18.708,18.708,0,0,1,.1,21.312,18.831,18.831,0,0,1,3.974,7.625a18.794,18.794,0,0,1,11.4-7.2A28.672,28.672,0,0,1,19.3,0,1.4,1.4,0,0,1,20.791,1.35a1.414,1.414,0,0,1-1.33,1.539c-1.124.127-2.266.152-3.373.363A15.686,15.686,0,0,0,8.509,7.019a15.911,15.911,0,0,0-5.374,9.709A15.988,15.988,0,0,0,6.914,30.053,15.526,15.526,0,0,0,15.091,35.2a15.99,15.99,0,0,0,15.226-3.668,15.894,15.894,0,0,0,5.255-9.61c.135-.816.144-1.654.2-2.483a1.471,1.471,0,0,1,1.69-1.533A1.554,1.554,0,0,1,38.7,19.042v1.436c-.031.272-.062.544-.093.816a19.123,19.123,0,0,1-4.86,10.954A18.98,18.98,0,0,1,22.681,38.4c-.728.129-1.466.2-2.2.3Z" transform="translate(0 0)" fill="#3a79f9"/>
    <path id="Path_54" data-name="Path 54" d="M105.987,69.3a4.417,4.417,0,0,1,.312-.411q8.48-8.465,16.961-16.929a1.616,1.616,0,0,1,1.5-.6,1.445,1.445,0,0,1,.9,2.29,3.4,3.4,0,0,1-.332.362q-9.083,9.064-18.169,18.127a1.513,1.513,0,0,1-2.5-.039q-3.534-3.836-7.065-7.675a1.478,1.478,0,0,1,0-2.156,1.445,1.445,0,0,1,2.067.1c.569.589,1.114,1.2,1.669,1.8q2.24,2.433,4.478,4.868a2.875,2.875,0,0,1,.173.256" transform="translate(-87.94 -46.476)" fill="#3a79f9"/>
  </g>
</svg>
